<svg version="1.1" id="Layer_1" xmlns="http://www.w3.org/2000/svg" xmlns:xlink="http://www.w3.org/1999/xlink" x="0px" y="0px"
	 width="100%" viewBox="0 0 2825 2825" enable-background="new 0 0 2825 2825" xml:space="preserve">

<path fill="#B5862D" opacity="1.000000" stroke="none" 
	d="
M2828.000000,1107.062744 
	C2823.922119,1107.828003 2819.844482,1107.516602 2815.766357,1107.507324 
	C2794.102539,1107.458130 2772.438721,1107.484497 2750.774902,1107.484741 
	C2747.145508,1107.484863 2743.516357,1107.484863 2738.622803,1107.484863 
	C2738.520752,1112.481567 2738.359863,1116.687012 2738.359619,1120.892578 
	C2738.346436,1255.874878 2738.348633,1390.857056 2738.348633,1525.839355 
	C2738.348633,1617.160645 2738.282471,1708.482056 2738.483154,1799.802979 
	C2738.498047,1806.578247 2736.977051,1811.741089 2732.150391,1816.684082 
	C2718.205078,1830.964722 2704.737061,1845.710449 2691.047119,1860.240967 
	C2663.432129,1889.551514 2635.832031,1918.876587 2608.151611,1948.125488 
	C2588.248535,1969.156128 2568.202881,1990.052002 2548.263428,2011.048462 
	C2534.281006,2025.772217 2520.122314,2040.341797 2506.581055,2055.462646 
	C2502.562500,2059.949951 2498.577393,2061.584961 2492.830078,2061.566162 
	C2447.169922,2061.417725 2401.509033,2061.484863 2355.848389,2061.484863 
	C2249.862305,2061.485352 2143.876221,2061.431152 2037.890381,2061.598389 
	C2030.394531,2061.610107 2025.212158,2059.763672 2019.949707,2053.720703 
	C2006.410156,2038.173218 1991.670898,2023.671509 1977.435791,2008.728149 
	C1944.604492,1974.263184 1911.816162,1939.757080 1878.953369,1905.322266 
	C1862.174194,1887.740234 1845.240479,1870.305786 1828.435913,1852.747803 
	C1816.009155,1839.763794 1803.563843,1826.792847 1791.417725,1813.549316 
	C1789.401123,1811.350342 1788.432373,1807.876709 1787.790405,1804.821777 
	C1787.186401,1801.948364 1787.651855,1798.849731 1787.651855,1795.850098 
	C1787.651245,1571.213013 1787.651123,1346.575806 1787.651123,1121.938721 
	C1787.651123,1117.668457 1787.651123,1113.398193 1787.651123,1107.690674 
	C1772.967651,1107.619263 1759.121460,1107.525513 1745.275146,1107.491943 
	C1731.323730,1107.458252 1717.371948,1107.484497 1703.679932,1107.484497 
	C1701.271362,1099.858276 1700.459839,767.936462 1702.667847,752.855225 
	C1880.008789,752.855225 2057.450684,752.855225 2235.621094,752.855225 
	C2235.621094,870.811707 2235.621094,988.545105 2235.621094,1107.430054 
	C2217.997559,1107.430054 2200.815430,1107.430054 2183.010010,1107.430054 
	C2183.010010,1309.027954 2183.010010,1509.475586 2183.010010,1709.797363 
	C2190.679688,1711.835571 2332.322266,1712.307251 2343.858887,1710.457520 
	C2346.086182,1703.497559 2347.046875,1127.389526 2344.704102,1107.969727 
	C2325.226562,1106.651733 2305.382812,1108.234497 2285.017090,1107.069092 
	C2285.017090,988.856812 2285.017090,871.379639 2285.017090,752.613525 
	C2288.785645,752.468689 2292.624756,752.195007 2296.463867,752.192688 
	C2344.457520,752.163391 2392.451172,752.173401 2440.444824,752.173401 
	C2564.761719,752.173401 2689.078857,752.166260 2813.395752,752.203308 
	C2817.698486,752.204590 2822.001221,752.647583 2827.151855,752.442322 
	C2828.000000,870.041809 2828.000000,988.083557 2828.000000,1107.062744 
M1964.782104,1928.213135 
	C1990.800415,1955.440552 2016.988403,1982.509277 2042.709473,2010.014771 
	C2048.625488,2016.341431 2054.603027,2019.118652 2063.419189,2019.100952 
	C2196.749512,2018.831787 2330.080811,2018.846191 2463.411621,2019.075806 
	C2471.753418,2019.090210 2477.583008,2016.744385 2483.396729,2010.627563 
	C2551.130615,1939.361206 2619.064209,1868.283691 2687.223145,1797.423950 
	C2693.693604,1790.697144 2696.462891,1784.093628 2696.453125,1774.652588 
	C2696.212158,1542.990234 2696.291992,1311.327759 2696.314697,1079.665161 
	C2696.315186,1075.087524 2696.314941,1070.509888 2696.314941,1064.462036 
	C2725.900635,1064.462036 2754.325195,1064.462036 2782.482666,1064.462036 
	C2783.177979,1062.084473 2783.686035,1061.157104 2783.686768,1060.229248 
	C2783.758545,973.898315 2783.794922,887.567322 2783.802246,801.236389 
	C2783.802246,799.590515 2783.456055,797.940979 2783.210938,796.302185 
	C2783.169434,796.026367 2782.824219,795.790833 2782.606934,795.548035 
	C2782.384766,795.299500 2782.147461,795.064819 2781.940186,794.848633 
	C2758.695312,792.591125 2339.648438,793.724182 2332.538818,796.059387 
	C2330.666992,812.900513 2331.477539,1056.347534 2333.745117,1064.686279 
	C2351.257324,1064.686279 2369.110596,1064.686279 2388.151611,1064.686279 
	C2388.151611,1070.403931 2388.151367,1074.974487 2388.151367,1079.544922 
	C2388.151367,1286.874634 2388.157227,1494.204346 2388.132324,1701.534058 
	C2388.131104,1710.186035 2390.137207,1719.785767 2387.060059,1727.229370 
	C2383.837402,1735.025879 2375.356934,1740.545532 2369.644287,1747.449219 
	C2365.194824,1752.826538 2360.031494,1754.414551 2353.132324,1754.380981 
	C2298.467773,1754.115479 2243.801758,1754.259644 2189.135986,1754.205200 
	C2180.831055,1754.196899 2171.579346,1756.021362 2164.488037,1752.980713 
	C2157.393066,1749.938477 2152.803711,1741.450684 2146.479980,1736.101929 
	C2139.948242,1730.577393 2138.474121,1724.046997 2138.489746,1715.840698 
	C2138.706055,1603.176392 2138.635498,1490.511475 2138.635254,1377.846802 
	C2138.635254,1277.848511 2138.626221,1177.850342 2138.668457,1077.852051 
	C2138.670166,1073.664307 2139.154785,1069.476807 2139.484619,1064.160400 
	C2156.669678,1064.160400 2172.842285,1064.160400 2188.802734,1064.160400 
	C2189.397461,1062.066895 2189.892090,1061.137817 2189.892822,1060.208252 
	C2189.963867,973.877380 2190.000488,887.546448 2190.007080,801.215576 
	C2190.007080,799.571594 2189.645996,797.923950 2189.395020,796.286987 
	C2189.352783,796.010864 2189.023926,795.767883 2188.802734,795.533081 
	C2188.574463,795.291138 2188.315918,795.078064 2188.177246,794.950562 
	C2040.220825,794.950562 1892.372192,794.950562 1744.627930,794.950562 
	C1744.135132,796.570862 1743.602173,797.506104 1743.601074,798.442078 
	C1743.501831,884.438171 1743.439087,970.434265 1743.409180,1056.430420 
	C1743.408447,1058.409180 1743.791260,1060.390869 1744.051758,1062.363770 
	C1744.087402,1062.634155 1744.442627,1062.870117 1744.666748,1063.105957 
	C1744.896118,1063.347290 1745.146240,1063.568848 1746.402954,1064.769653 
	C1773.263062,1064.769653 1801.149292,1064.769653 1830.350586,1064.769653 
	C1830.350586,1070.263916 1830.350586,1074.828735 1830.350586,1079.393555 
	C1830.350708,1311.722778 1830.389526,1544.052124 1830.186646,1776.381226 
	C1830.179688,1784.359619 1832.552368,1790.015381 1838.019897,1795.687866 
	C1880.115356,1839.361206 1921.929077,1883.306152 1964.782104,1928.213135 
z"/>
<path fill="#B4862D" opacity="1.000000" stroke="none" 
	d="
M2.000000,752.937317 
	C6.664009,752.057068 11.328015,752.163940 15.992024,752.164062 
	C352.920654,752.171875 689.849304,752.171204 1026.777954,752.171204 
	C1031.399658,752.171204 1036.021362,752.171204 1040.430542,752.171204 
	C1042.710327,759.745850 1043.485962,1174.098755 1041.347412,1188.769409 
	C911.343689,1188.769409 781.233765,1188.769409 649.936401,1188.769409 
	C649.936401,1162.043945 649.936401,1135.579590 649.936401,1109.466675 
	C641.328857,1107.062378 497.820984,1106.671265 486.969604,1108.818359 
	C486.969604,1157.160522 486.969604,1205.625000 486.969604,1255.168823 
	C583.366211,1255.500000 679.158569,1255.829102 775.647583,1256.160645 
	C775.647583,1370.179321 775.647583,1483.240234 775.647583,1597.610352 
	C679.342346,1597.013062 583.571594,1596.419312 487.074310,1595.820923 
	C487.074310,1634.590942 487.074310,1672.055664 487.074310,1710.487549 
	C496.216492,1712.445435 505.478302,1711.184204 514.616089,1711.415161 
	C523.608398,1711.642578 532.610962,1711.464722 541.609070,1711.464722 
	C550.881165,1711.464722 560.153259,1711.464722 569.862793,1711.464722 
	C569.862793,1828.396729 569.862793,1944.252808 569.862793,2061.487305 
	C565.171997,2061.487305 560.946655,2061.487305 556.721375,2061.487305 
	C376.759491,2061.487305 196.797577,2061.486572 16.835690,2061.493164 
	C12.504199,2061.493164 8.172709,2061.575684 2.920609,2061.809814 
	C2.000000,1945.958252 2.000000,1829.916382 2.806396,1712.706299 
	C7.551169,1711.084595 11.487356,1710.262695 15.428283,1710.239258 
	C37.077621,1710.110596 58.728168,1710.200562 80.378166,1710.153687 
	C83.893440,1710.145996 87.408035,1709.828247 91.227974,1709.638672 
	C91.406433,1706.323486 91.638435,1704.040283 91.636734,1701.757202 
	C91.490128,1504.589233 91.325714,1307.421265 91.137199,1110.253296 
	C91.136948,1109.996216 90.767044,1109.731323 90.552849,1109.484863 
	C90.335579,1109.234619 90.097160,1109.002930 89.138893,1108.000000 
	C60.580982,1108.000000 31.290491,1108.000000 2.000000,1108.000000 
	C2.000000,989.958191 2.000000,871.916443 2.000000,752.937317 
M134.353790,1296.999878 
	C134.192398,1448.645020 134.031250,1600.290283 133.849884,1751.935425 
	C133.849564,1752.211914 133.570786,1752.503906 133.383026,1752.760254 
	C133.186890,1753.028198 132.943192,1753.261353 131.914001,1754.407959 
	C103.478783,1754.407959 74.274033,1754.407959 44.389477,1754.407959 
	C44.389477,1842.774170 44.389477,1930.191040 44.389477,2017.466797 
	C55.711250,2019.809814 519.628418,2019.367065 527.240662,2017.147949 
	C529.435364,2003.013550 528.656006,1761.854736 526.058228,1753.950439 
	C498.889008,1753.950439 471.369781,1753.950439 442.631561,1753.950439 
	C442.631561,1736.370728 442.631561,1719.784058 442.631561,1703.197266 
	C442.631561,1686.531250 442.631561,1669.865356 442.631561,1653.199341 
	C442.631561,1636.200073 442.518158,1619.199707 442.663940,1602.201660 
	C442.805145,1585.738037 442.008759,1569.226318 443.259735,1552.209961 
	C476.665192,1552.209961 508.638672,1552.209961 540.612183,1552.209961 
	C572.610901,1552.209961 604.609680,1552.248169 636.608337,1552.199219 
	C668.471008,1552.150391 700.340515,1552.419189 731.947632,1552.030884 
	C734.415588,1536.120239 733.534363,1307.307373 730.841431,1299.155640 
	C711.960022,1299.155640 692.693176,1299.155640 673.426270,1299.155640 
	C654.427002,1299.155640 635.427795,1299.155640 616.428528,1299.155640 
	C597.096008,1299.155640 577.763428,1299.155640 558.430908,1299.155640 
	C539.431641,1299.155640 520.432312,1299.198242 501.433197,1299.143677 
	C482.224518,1299.088501 463.003723,1299.387939 444.114410,1298.957397 
	C441.576294,1286.015015 442.197815,1072.337769 444.517639,1065.370239 
	C457.699341,1063.483398 687.851807,1064.139526 695.754639,1066.303223 
	C696.383301,1092.504150 695.440918,1119.003174 696.258301,1145.226074 
	C714.156067,1147.522583 991.052795,1146.614136 997.906982,1144.413330 
	C1000.159607,1124.724243 999.077698,802.188416 996.735229,795.089233 
	C980.990845,793.021973 51.415379,793.844604 44.426739,795.936523 
	C44.426739,885.097168 44.426739,974.260376 44.426739,1064.355225 
	C74.591133,1064.738525 104.075348,1064.157471 134.353821,1064.711182 
	C134.353821,1142.418457 134.353821,1218.709106 134.353790,1296.999878 
z"/>

<path fill="#B5862D" opacity="1.000000" stroke="none" 
	d="
M1657.679199,1042.000244 
	C1657.679199,1063.949829 1657.679199,1084.899414 1657.679199,1106.901733 
	C1628.486694,1108.372437 1599.981323,1106.681274 1570.974365,1107.907959 
	C1570.974365,1309.127563 1570.974365,1509.577148 1570.974365,1711.382935 
	C1599.987671,1711.382935 1628.469727,1711.382935 1657.297119,1711.382935 
	C1657.297119,1828.332031 1657.297119,1943.925293 1657.297119,2059.281250 
	C1656.850708,2059.755859 1656.638062,2060.003906 1656.401733,2060.227051 
	C1656.161011,2060.454834 1655.919678,2060.805664 1655.640015,2060.848145 
	C1654.002197,2061.096436 1652.353027,2061.444336 1650.707764,2061.444336 
	C1464.400513,2061.441162 1278.093262,2061.411133 1091.786011,2061.346924 
	C1090.852051,2061.346436 1089.918335,2060.839355 1088.340698,2060.382324 
	C1088.340698,1944.596558 1088.340698,1828.785278 1088.340698,1711.522339 
	C1117.755615,1711.484863 1147.149414,1711.447388 1177.078857,1711.409180 
	C1177.078857,1509.750977 1177.078857,1309.568237 1177.078857,1108.390137 
	C1167.304077,1106.486694 1157.386475,1107.755005 1147.581543,1107.533325 
	C1137.921143,1107.314941 1128.251953,1107.485718 1118.586548,1107.485718 
	C1108.676392,1107.485718 1098.766357,1107.485718 1088.262695,1107.485718 
	C1088.262695,988.775208 1088.262695,871.257996 1088.262695,753.757812 
	C1095.558960,751.744934 1646.014648,751.372620 1657.679199,753.585022 
	C1657.679199,849.233643 1657.679199,945.116882 1657.679199,1042.000244 
M1132.350830,1970.999756 
	C1132.350830,1986.559082 1132.350830,2002.118408 1132.350830,2017.328979 
	C1143.246460,2019.599365 1606.293701,2019.383179 1614.186646,2017.410645 
	C1616.305786,2007.774414 1616.006958,1762.702515 1613.699829,1754.581787 
	C1585.502441,1753.388916 1557.014648,1755.267456 1528.722900,1753.557861 
	C1528.722900,1523.469727 1528.722900,1294.636108 1528.722900,1064.704590 
	C1557.745972,1064.067017 1586.195312,1064.932861 1614.303223,1064.220215 
	C1616.373413,1050.640991 1615.878906,802.666748 1613.884399,794.876343 
	C1453.214478,794.876343 1292.429810,794.876343 1131.778076,794.876343 
	C1129.424683,806.297791 1129.877319,1056.507812 1132.505859,1064.805420 
	C1160.961548,1064.805420 1189.812378,1064.805420 1219.011597,1064.805420 
	C1219.011597,1295.081177 1219.011597,1524.171631 1219.011597,1753.952759 
	C1189.892334,1754.797729 1161.421021,1753.564697 1132.350952,1754.691772 
	C1132.350952,1827.079956 1132.350952,1898.039795 1132.350830,1970.999756 
z"/>
<path fill="#091F3F" opacity="1.000000" stroke="none" 
	d="
M1964.306152,1927.689941 
	C1921.929077,1883.306152 1880.115356,1839.361206 1838.019897,1795.687866 
	C1832.552368,1790.015381 1830.179688,1784.359619 1830.186646,1776.381226 
	C1830.389526,1544.052124 1830.350708,1311.722778 1830.350586,1079.393555 
	C1830.350586,1074.828735 1830.350586,1070.263916 1830.350586,1064.769653 
	C1801.149292,1064.769653 1773.263062,1064.769653 1746.402954,1064.769653 
	C1745.146240,1063.568848 1744.896118,1063.347290 1744.666748,1063.105957 
	C1744.442627,1062.870117 1744.087402,1062.634155 1744.051758,1062.363770 
	C1743.791260,1060.390869 1743.408447,1058.409180 1743.409180,1056.430420 
	C1743.439087,970.434265 1743.501831,884.438171 1743.601074,798.442078 
	C1743.602173,797.506104 1744.135132,796.570862 1744.627930,794.950562 
	C1892.372192,794.950562 2040.220825,794.950562 2188.177246,794.950562 
	C2188.315918,795.078064 2188.574463,795.291138 2188.802734,795.533081 
	C2189.023926,795.767883 2189.352783,796.010864 2189.395020,796.286987 
	C2189.645996,797.923950 2190.007080,799.571594 2190.007080,801.215576 
	C2190.000488,887.546448 2189.963867,973.877380 2189.892822,1060.208252 
	C2189.892090,1061.137817 2189.397461,1062.066895 2188.802734,1064.160400 
	C2172.842285,1064.160400 2156.669678,1064.160400 2139.484619,1064.160400 
	C2139.154785,1069.476807 2138.670166,1073.664307 2138.668457,1077.852051 
	C2138.626221,1177.850342 2138.635254,1277.848511 2138.635254,1377.846802 
	C2138.635498,1490.511475 2138.706055,1603.176392 2138.489746,1715.840698 
	C2138.474121,1724.046997 2139.948242,1730.577393 2146.479980,1736.101929 
	C2152.803711,1741.450684 2157.393066,1749.938477 2164.488037,1752.980713 
	C2171.579346,1756.021362 2180.831055,1754.196899 2189.135986,1754.205200 
	C2243.801758,1754.259644 2298.467773,1754.115479 2353.132324,1754.380981 
	C2360.031494,1754.414551 2365.194824,1752.826538 2369.644287,1747.449219 
	C2375.356934,1740.545532 2383.837402,1735.025879 2387.060059,1727.229370 
	C2390.137207,1719.785767 2388.131104,1710.186035 2388.132324,1701.534058 
	C2388.157227,1494.204346 2388.151367,1286.874634 2388.151367,1079.544922 
	C2388.151367,1074.974487 2388.151611,1070.403931 2388.151611,1064.686279 
	C2369.110596,1064.686279 2351.257324,1064.686279 2333.745117,1064.686279 
	C2331.477539,1056.347534 2330.666992,812.900513 2332.538818,796.059387 
	C2339.648438,793.724182 2758.695312,792.591125 2781.940186,794.848633 
	C2782.147461,795.064819 2782.384766,795.299500 2782.606934,795.548035 
	C2782.824219,795.790833 2783.169434,796.026367 2783.210938,796.302185 
	C2783.456055,797.940979 2783.802246,799.590515 2783.802246,801.236389 
	C2783.794922,887.567322 2783.758545,973.898315 2783.686768,1060.229248 
	C2783.686035,1061.157104 2783.177979,1062.084473 2782.482666,1064.462036 
	C2754.325195,1064.462036 2725.900635,1064.462036 2696.314941,1064.462036 
	C2696.314941,1070.509888 2696.315186,1075.087524 2696.314697,1079.665161 
	C2696.291992,1311.327759 2696.212158,1542.990234 2696.453125,1774.652588 
	C2696.462891,1784.093628 2693.693604,1790.697144 2687.223145,1797.423950 
	C2619.064209,1868.283691 2551.130615,1939.361206 2483.396729,2010.627563 
	C2477.583008,2016.744385 2471.753418,2019.090210 2463.411621,2019.075806 
	C2330.080811,2018.846191 2196.749512,2018.831787 2063.419189,2019.100952 
	C2054.603027,2019.118652 2048.625488,2016.341431 2042.709473,2010.014771 
	C2016.988403,1982.509277 1990.800415,1955.440552 1964.306152,1927.689941 
z"/>
<path fill="#091F3F" opacity="1.000000" stroke="none" 
	d="
M134.353806,1295.999756 
	C134.353821,1218.709106 134.353821,1142.418457 134.353821,1064.711182 
	C104.075348,1064.157471 74.591133,1064.738525 44.426739,1064.355225 
	C44.426739,974.260376 44.426739,885.097168 44.426739,795.936523 
	C51.415379,793.844604 980.990845,793.021973 996.735229,795.089233 
	C999.077698,802.188416 1000.159607,1124.724243 997.906982,1144.413330 
	C991.052795,1146.614136 714.156067,1147.522583 696.258301,1145.226074 
	C695.440918,1119.003174 696.383301,1092.504150 695.754639,1066.303223 
	C687.851807,1064.139526 457.699341,1063.483398 444.517639,1065.370239 
	C442.197815,1072.337769 441.576294,1286.015015 444.114410,1298.957397 
	C463.003723,1299.387939 482.224518,1299.088501 501.433197,1299.143677 
	C520.432312,1299.198242 539.431641,1299.155640 558.430908,1299.155640 
	C577.763428,1299.155640 597.096008,1299.155640 616.428528,1299.155640 
	C635.427795,1299.155640 654.427002,1299.155640 673.426270,1299.155640 
	C692.693176,1299.155640 711.960022,1299.155640 730.841431,1299.155640 
	C733.534363,1307.307373 734.415588,1536.120239 731.947632,1552.030884 
	C700.340515,1552.419189 668.471008,1552.150391 636.608337,1552.199219 
	C604.609680,1552.248169 572.610901,1552.209961 540.612183,1552.209961 
	C508.638672,1552.209961 476.665192,1552.209961 443.259735,1552.209961 
	C442.008759,1569.226318 442.805145,1585.738037 442.663940,1602.201660 
	C442.518158,1619.199707 442.631561,1636.200073 442.631561,1653.199341 
	C442.631561,1669.865356 442.631561,1686.531250 442.631561,1703.197266 
	C442.631561,1719.784058 442.631561,1736.370728 442.631561,1753.950439 
	C471.369781,1753.950439 498.889008,1753.950439 526.058228,1753.950439 
	C528.656006,1761.854736 529.435364,2003.013550 527.240662,2017.147949 
	C519.628418,2019.367065 55.711250,2019.809814 44.389477,2017.466797 
	C44.389477,1930.191040 44.389477,1842.774170 44.389477,1754.407959 
	C74.274033,1754.407959 103.478783,1754.407959 131.914001,1754.407959 
	C132.943192,1753.261353 133.186890,1753.028198 133.383026,1752.760254 
	C133.570786,1752.503906 133.849564,1752.211914 133.849884,1751.935425 
	C134.031250,1600.290283 134.192398,1448.645020 134.353806,1295.999756 
z"/>
<path fill="#091F3F" opacity="1.000000" stroke="none" 
	d="
M1132.350830,1969.999756 
	C1132.350952,1898.039795 1132.350952,1827.079956 1132.350952,1754.691772 
	C1161.421021,1753.564697 1189.892334,1754.797729 1219.011597,1753.952759 
	C1219.011597,1524.171631 1219.011597,1295.081177 1219.011597,1064.805420 
	C1189.812378,1064.805420 1160.961548,1064.805420 1132.505859,1064.805420 
	C1129.877319,1056.507812 1129.424683,806.297791 1131.778076,794.876343 
	C1292.429810,794.876343 1453.214478,794.876343 1613.884399,794.876343 
	C1615.878906,802.666748 1616.373413,1050.640991 1614.303223,1064.220215 
	C1586.195312,1064.932861 1557.745972,1064.067017 1528.722900,1064.704590 
	C1528.722900,1294.636108 1528.722900,1523.469727 1528.722900,1753.557861 
	C1557.014648,1755.267456 1585.502441,1753.388916 1613.699829,1754.581787 
	C1616.006958,1762.702515 1616.305786,2007.774414 1614.186646,2017.410645 
	C1606.293701,2019.383179 1143.246460,2019.599365 1132.350830,2017.328979 
	C1132.350830,2002.118408 1132.350830,1986.559082 1132.350830,1969.999756 
z"/>
</svg>
